<svg width="468" height="468" viewBox="0 0 468 468" fill="none" xmlns="http://www.w3.org/2000/svg">
<path fill-rule="evenodd" clip-rule="evenodd" d="M10.4298 10.4297C23.4475 -2.58757 44.5528 -2.58757 57.5704 10.4297L234 186.86L410.43 10.4297C423.447 -2.58757 444.553 -2.58757 457.57 10.4297C470.587 23.4474 470.587 44.5527 457.57 57.5704L281.14 234L457.57 410.43C470.587 423.447 470.587 444.553 457.57 457.57C444.553 470.587 423.447 470.587 410.43 457.57L234 281.14L57.5704 457.57C44.5528 470.587 23.4475 470.587 10.4298 457.57C-2.58759 444.553 -2.58759 423.447 10.4298 410.43L186.86 234L10.4298 57.5704C-2.58759 44.5527 -2.58759 23.4474 10.4298 10.4297Z" fill="white"/>
</svg>
